# xmcd CD database file
# Copyright (C) 1997 Ti Kan
# 
# Track frame offsets:
#     150
#     11460
#     23882
#     35610
#     47907
#     60525
#     74215
#     87425
#     100810
#     110707
#     123047
#     135675
#     151560
#     163892
#     187255
#     198560
#     215642
#     229127
# 
# Disc length: 3218 seconds
# 
# Revision: 1
# Processed by: cddbd v1.4b41PL1 Copyright (c) Steve Scherf et al.
# Submitted via: DiscPlay 4.0.4
# 
DISCID=070c9012
DTITLE=John Lee Hooker - Boogie Man
DYEAR=1900
DGENRE=
TTITLE0=Boom Boom
TTITLE1=Crawlin' King Snake
TTITLE2=Boogie Chillun
TTITLE3=I'm In The Mood
TTITLE4=Leave My Wife Alone
TTITLE5=Time Is Marching
TTITLE6=One Bourbon, One Scotch, One Beer
TTITLE7=Ground Hog Blues
TTITLE8=Dimples
TTITLE9=Walkin' The Boogie
TTITLE10=Hobo Blues
TTITLE11=It Serves Me Right To Suffer
TTITLE12=High Priced Woman
TTITLE13=The Waterfront
TTITLE14=This Is Hip
TTITLE15=Goin' Mad Blues
TTITLE16=Wandering Blues
TTITLE17=House Rent Boogie
EXTD=
EXTT0=
EXTT1=
EXTT2=
EXTT3=
EXTT4=
EXTT5=
EXTT6=
EXTT7=
EXTT8=
EXTT9=
EXTT10=
EXTT11=
EXTT12=
EXTT13=
EXTT14=
EXTT15=
EXTT16=
EXTT17=
PLAYORDER=
